<svg width="24" height="24" viewBox="0 0 24 24" fill="none" xmlns="http://www.w3.org/2000/svg">
<path d="M3 9.5909C3 9.31476 3.22386 9.0909 3.5 9.0909H6.5C6.77614 9.0909 7 9.31476 7 9.5909V15.1364C7 15.4125 6.77614 15.6364 6.5 15.6364H3.5C3.22386 15.6364 3 15.4125 3 15.1364V9.5909Z" fill="black"/>
<path fill-rule="evenodd" clip-rule="evenodd" d="M2.25 9.5909C2.25 8.90055 2.80964 8.3409 3.5 8.3409H6.5C7.19036 8.3409 7.75 8.90055 7.75 9.5909V15.1364C7.75 15.8267 7.19036 16.3864 6.5 16.3864H3.5C2.80964 16.3864 2.25 15.8267 2.25 15.1364V9.5909ZM3.75 9.8409V14.8864H6.25V9.8409H3.75Z" fill="black"/>
<path fill-rule="evenodd" clip-rule="evenodd" d="M13.8864 6.24567L7.65909 9.54247V15.1848L13.8864 18.4816V6.24567ZM13.5515 4.72571C14.384 4.28498 15.3864 4.88848 15.3864 5.83045V18.8968C15.3864 19.8388 14.384 20.4423 13.5515 20.0016L6.82423 16.4401C6.41503 16.2234 6.15909 15.7983 6.15909 15.3353V9.39195C6.15909 8.92893 6.41503 8.50385 6.82423 8.28721L13.5515 4.72571Z" fill="black"/>
<path fill-rule="evenodd" clip-rule="evenodd" d="M16.357 9.59859C16.0767 9.29371 16.0965 8.81925 16.4014 8.53886L19.3849 5.79508C19.6898 5.51469 20.1642 5.53454 20.4446 5.83943C20.725 6.14431 20.7052 6.61877 20.4003 6.89916L17.4168 9.64295C17.1119 9.92334 16.6374 9.90348 16.357 9.59859Z" fill="black"/>
<path fill-rule="evenodd" clip-rule="evenodd" d="M16.3299 15.1599C16.5931 14.84 17.0657 14.794 17.3856 15.0572L20.3691 17.5117C20.6889 17.7749 20.7349 18.2475 20.4718 18.5674C20.2086 18.8873 19.736 18.9332 19.4161 18.6701L16.4326 16.2155C16.1127 15.9524 16.0667 15.4797 16.3299 15.1599Z" fill="black"/>
<path fill-rule="evenodd" clip-rule="evenodd" d="M16.1591 12.3636C16.1591 11.9494 16.4949 11.6136 16.9091 11.6136H21C21.4142 11.6136 21.75 11.9494 21.75 12.3636C21.75 12.7778 21.4142 13.1136 21 13.1136H16.9091C16.4949 13.1136 16.1591 12.7778 16.1591 12.3636Z" fill="black"/>
</svg>
