<svg width="24" height="24" viewBox="0 0 24 24" fill="none" xmlns="http://www.w3.org/2000/svg">
<path d="M18.9341 15.4429L18.4563 14.9495C18.4202 14.9122 18.4 14.8623 18.4 14.8103V9.34264L8.72091 19.0217H9.56245C9.58319 19.0217 9.6 19.0386 9.6 19.0593V19.1C9.6 20.4255 10.6745 21.5 12 21.5C13.3255 21.5 14.4 20.4255 14.4 19.1V19.0593C14.4 19.0386 14.4168 19.0217 14.4376 19.0217H19.0539C19.5764 19.0217 20 18.5981 20 18.0756C20 17.0929 19.6178 16.1488 18.9341 15.4429Z" fill="black"/>
<path d="M10 5.15217L9.20849 5.221C7.33695 5.38374 5.83333 6.8316 5.6 8.69565V13.6574L14 5.15217L13.8924 4.57306C13.7229 3.66129 12.9274 3 12 3C11.0726 3 10.2771 3.66129 10.1076 4.57306L10 5.15217Z" fill="black"/>
<path d="M19.2071 5.70711C19.5976 5.31658 19.5976 4.68342 19.2071 4.29289C19.1392 4.22497 19.0639 4.16887 18.9839 4.12457C18.6037 3.91418 18.1155 3.97029 17.7929 4.29289L16.3797 5.70611L14.7071 7.37867L4.2929 17.7929C4.22278 17.863 4.16524 17.941 4.1203 18.0239C3.91496 18.403 3.97249 18.8867 4.2929 19.2071C4.68342 19.5976 5.31659 19.5976 5.70711 19.2071L5.89248 19.0217L17.8294 7.08484L19.2071 5.70711Z" fill="black"/>
</svg>
