<svg width="24" height="24" viewBox="0 0 24 24" fill="none" xmlns="http://www.w3.org/2000/svg">
<path fill-rule="evenodd" clip-rule="evenodd" d="M6.5 16H16C17.8856 16 18.8284 16 19.4142 15.4142C20 14.8284 20 13.8856 20 12V7C20 5.11439 20 4.17158 19.4142 3.58579C18.8284 3 17.8856 3 16 3H8C6.11439 3 5.17158 3 4.58579 3.58579C4 4.17158 4 5.11439 4 7V18.5C4 17.1193 5.11929 16 6.5 16ZM9 6C7.89544 6 7 6.89544 7 8C7 9.10457 7.89544 10 9 10H15C16.1046 10 17 9.10458 17 8.00001C17 6.89544 16.1046 6.00001 15 6.00001L9 6Z" fill="black"/>
<path fill-rule="evenodd" clip-rule="evenodd" d="M5.93871 4.06431C5.50497 4.12263 5.36902 4.21677 5.2929 4.2929C5.21677 4.36902 5.12263 4.50497 5.06431 4.93871C5.00213 5.40121 5 6.02893 5 7V15.3368C5.45463 15.1209 5.96321 15 6.5 15H16C16.9711 15 17.5988 14.9979 18.0613 14.9357C18.495 14.8774 18.631 14.7832 18.7071 14.7071C18.7832 14.631 18.8774 14.495 18.9357 14.0613C18.9979 13.5988 19 12.9711 19 12V7C19 6.02893 18.9979 5.40121 18.9357 4.93871C18.8774 4.50497 18.7832 4.36902 18.7071 4.2929C18.631 4.21677 18.495 4.12263 18.0613 4.06431C17.5988 4.00213 16.9711 4 16 4H8C7.02893 4 6.40122 4.00213 5.93871 4.06431ZM3 18.5V7C3 6.97799 3 6.95604 3 6.93417C2.99995 6.04769 2.99991 5.28387 3.08215 4.67221C3.17028 4.0167 3.36902 3.38835 3.87868 2.87868C4.38835 2.36902 5.0167 2.17028 5.67221 2.08215C6.28387 1.99991 7.04769 1.99995 7.93417 2C7.95604 2 7.97799 2 8 2L16.0658 2C16.9523 1.99995 17.7161 1.99991 18.3278 2.08215C18.9833 2.17028 19.6117 2.36902 20.1213 2.87868C20.631 3.38835 20.8297 4.0167 20.9179 4.67221C21.0001 5.28388 21.0001 6.0477 21 6.9342V12.0658C21.0001 12.9523 21.0001 13.7161 20.9179 14.3278C20.8297 14.9833 20.631 15.6117 20.1213 16.1213C19.6117 16.631 18.9833 16.8297 18.3278 16.9179C17.7161 17.0001 16.9523 17.0001 16.0658 17L6.5 17C5.67158 17 5 17.6716 5 18.5C5 19.3284 5.67158 20 6.5 20H11V22H6.5C4.56701 22 3 20.433 3 18.5ZM9 7C8.44772 7 8 7.44772 8 8C8 8.55229 8.44772 9 9 9L15 9.00001C15.5523 9.00001 16 8.55229 16 8.00001C16 7.44772 15.5523 7.00001 15 7.00001L9 7ZM6 8C6 6.34315 7.34315 5 9 5L15 5.00001C16.6569 5.00001 18 6.34315 18 8.00001C18 9.65686 16.6569 11 15 11H9C7.34315 11 6 9.65686 6 8Z" fill="black"/>
<path fill-rule="evenodd" clip-rule="evenodd" d="M9 21C9 20.4477 9.44772 20 10 20H20C20.5523 20 21 20.4477 21 21C21 21.5523 20.5523 22 20 22H10C9.44772 22 9 21.5523 9 21Z" fill="black"/>
</svg>
