<svg width="19" height="24" viewBox="0 0 19 24" fill="none" xmlns="http://www.w3.org/2000/svg">
<path d="M9.76719 6.04454C10.7656 6.04454 12.0172 5.36954 12.7625 4.46954C13.4375 3.65391 13.9297 2.51485 13.9297 1.37579C13.9297 1.2211 13.9156 1.06641 13.8875 0.93985C12.7766 0.982037 11.4406 1.68516 10.6391 2.62735C10.0063 3.34454 9.42969 4.46954 9.42969 5.62266C9.42969 5.79141 9.45781 5.96016 9.47188 6.01641C9.54219 6.03047 9.65469 6.04454 9.76719 6.04454ZM6.25156 23.0602C7.61562 23.0602 8.22031 22.1461 9.92187 22.1461C11.6516 22.1461 12.0312 23.032 13.55 23.032C15.0406 23.032 16.0391 21.6539 16.9812 20.3039C18.0359 18.757 18.4719 17.2383 18.5 17.168C18.4016 17.1398 15.5469 15.9727 15.5469 12.6961C15.5469 9.85547 17.7969 8.57579 17.9234 8.47735C16.4328 6.33985 14.1687 6.2836 13.55 6.2836C11.8766 6.2836 10.5125 7.2961 9.65469 7.2961C8.72656 7.2961 7.50312 6.33985 6.05469 6.33985C3.29844 6.33985 0.5 8.61797 0.5 12.9211C0.5 15.593 1.54062 18.4195 2.82031 20.2477C3.91719 21.7945 4.87344 23.0602 6.25156 23.0602Z" fill="black"/>
</svg>
