<svg width="24" height="24" viewBox="0 0 24 24" fill="none" xmlns="http://www.w3.org/2000/svg">
<path fill-rule="evenodd" clip-rule="evenodd" d="M13.6168 6.91737C15.3133 6.91737 16.6886 8.27556 16.6886 9.95098C16.6886 11.6264 15.3133 12.9846 13.6168 12.9846C11.9202 12.9846 10.5449 11.6264 10.5449 9.95098C10.5449 8.27556 11.9202 6.91737 13.6168 6.91737ZM14.8563 9.95098C14.8563 9.27493 14.3013 8.72689 13.6168 8.72689C12.9322 8.72689 12.3772 9.27493 12.3772 9.95098C12.3772 10.627 12.9322 11.1751 13.6168 11.1751C14.3013 11.1751 14.8563 10.627 14.8563 9.95098Z" fill="black"/>
<path fill-rule="evenodd" clip-rule="evenodd" d="M17.9281 15.4328C19.6247 15.4328 21 16.791 21 18.4664C21 20.1418 19.6247 21.5 17.9281 21.5C16.2316 21.5 14.8563 20.1418 14.8563 18.4664C14.8563 16.791 16.2316 15.4328 17.9281 15.4328ZM19.1677 18.4664C19.1677 17.7903 18.6127 17.2423 17.9281 17.2423C17.2436 17.2423 16.6886 17.7903 16.6886 18.4664C16.6886 19.1424 17.2436 19.6905 17.9281 19.6905C18.6127 19.6905 19.1677 19.1424 19.1677 18.4664Z" fill="black"/>
<path fill-rule="evenodd" clip-rule="evenodd" d="M3 2.5H4.83234V14.2087C4.83234 15.2378 4.83428 15.9186 4.90309 16.4241C4.96836 16.9034 5.07829 17.0875 5.19539 17.2031C5.31248 17.3187 5.49882 17.4273 5.98425 17.4918C6.49604 17.5597 7.18545 17.5616 8.22755 17.5616H15.7725V19.3711L8.16537 19.3712C7.20226 19.3712 6.38845 19.3712 5.74009 19.2851C5.05148 19.1937 4.41402 18.9905 3.89973 18.4826C3.38544 17.9747 3.17968 17.3452 3.0871 16.6652C2.99993 16.0249 2.99996 15.2212 3 14.2701L3 2.5Z" fill="black"/>
<path fill-rule="evenodd" clip-rule="evenodd" d="M3 5.75471C3 5.7343 3 5.71382 3 5.69328H4.83234C4.83234 6.72241 4.83428 7.40323 4.90309 7.90865C4.96836 8.38804 5.07829 8.57205 5.19539 8.68769C5.31248 8.80333 5.49882 8.91189 5.98425 8.97635C6.49604 9.0443 7.18545 9.04622 8.22755 9.04622H11.4611V10.8557H8.22755C8.20674 10.8557 8.18601 10.8557 8.16534 10.8557C7.20224 10.8558 6.38844 10.8558 5.74009 10.7697C5.05148 10.6783 4.41402 10.4751 3.89973 9.96722C3.38544 9.45933 3.17968 8.82981 3.0871 8.14976C2.99993 7.50949 2.99996 6.70582 3 5.75471Z" fill="black"/>
</svg>
