<svg width="24" height="24" viewBox="0 0 24 24" fill="none" xmlns="http://www.w3.org/2000/svg">
<path fill-rule="evenodd" clip-rule="evenodd" d="M9.15729 7.40534C8.52184 7.48732 8.22752 7.63187 8.02721 7.82409C7.82689 8.01631 7.67626 8.29874 7.59083 8.90851C7.50191 9.54313 7.5 10.3906 7.5 11.6364V15.9545C7.5 17.2003 7.50191 18.0478 7.59083 18.6824C7.67626 19.2921 7.82689 19.5746 8.02722 19.7668C8.22753 19.959 8.52185 20.1036 9.15729 20.1856C9.81863 20.2709 10.7018 20.2727 12 20.2727H14.7C15.9982 20.2727 16.8813 20.2709 17.5427 20.1856C18.1781 20.1036 18.4724 19.959 18.6728 19.7668C18.8731 19.5746 19.0237 19.2921 19.1092 18.6824C19.1981 18.0478 19.2 17.2003 19.2 15.9545V11.6364C19.2 10.3906 19.1981 9.54313 19.1092 8.90851C19.0237 8.29874 18.8731 8.01632 18.6728 7.8241C18.4725 7.63187 18.1781 7.48732 17.5427 7.40534C16.8814 7.32002 15.9982 7.31818 14.7 7.31818H12C10.7018 7.31818 9.81863 7.32002 9.15729 7.40534ZM11.9365 5.59091H14.7635C15.9822 5.59088 16.9872 5.59085 17.7825 5.69347C18.6176 5.8012 19.3551 6.03608 19.9456 6.60272C20.5361 7.16935 20.7808 7.87704 20.8931 8.67835C21.0001 9.4416 21 10.406 21 11.5754V16.0155C21 17.1849 21.0001 18.1493 20.8931 18.9125C20.7808 19.7138 20.5361 20.4215 19.9456 20.9882C19.3551 21.5548 18.6176 21.7897 17.7825 21.8974C16.9872 22.0001 15.9822 22 14.7635 22H11.9365C10.7178 22 9.71282 22.0001 8.91744 21.8974C8.08239 21.7897 7.34491 21.5548 6.75441 20.9882C6.16392 20.4215 5.91915 19.7138 5.80688 18.9125C5.69994 18.1493 5.69997 17.1849 5.7 16.0155V11.5754C5.69997 10.4059 5.69994 9.4416 5.80688 8.67835C5.91915 7.87705 6.16392 7.16936 6.75442 6.60272C7.34491 6.03608 8.0824 5.8012 8.91744 5.69347C9.71282 5.59085 10.7178 5.59088 11.9365 5.59091Z" fill="black"/>
<path fill-rule="evenodd" clip-rule="evenodd" d="M7.26974 4.84605C6.38922 4.95965 5.92293 5.16743 5.59081 5.48613V5.48613M5.59081 5.48613C5.2587 5.80483 5.04216 6.25228 4.92378 7.09723C4.80191 7.96703 4.8 9.11982 4.8 10.7727V15.9545C4.8 16.9085 5.60588 17.6818 6.6 17.6818V19.4091C4.61179 19.4091 3 17.8625 3 15.9545L3 10.7095C2.99998 9.13474 2.99996 7.8654 3.13983 6.86708C3.28505 5.83059 3.59572 4.95789 4.31802 4.26477C5.04032 3.57166 5.94977 3.27353 7.0299 3.13418C8.07026 2.99996 9.39304 2.99998 11.0342 3L14.7 3C16.6883 3 18.3 4.54667 18.3 6.45455H16.5C16.5 5.50059 15.6941 4.72727 14.7 4.72727H11.1C9.3775 4.72727 8.17616 4.72911 7.26974 4.84605" fill="black"/>
</svg>
