<svg width="24" height="24" viewBox="0 0 24 24" fill="none" xmlns="http://www.w3.org/2000/svg">
<path d="M20.9981 10.3333C20.96 11.917 20.5582 13.4719 19.8225 14.8823C19.0867 16.2926 18.036 17.5221 16.7485 18.4792V21.1667C16.7485 21.3877 16.659 21.5996 16.4996 21.7559C16.3402 21.9122 16.124 22 15.8986 22C15.6732 22 15.4571 21.9122 15.2977 21.7559C15.1383 21.5996 15.0487 21.3877 15.0487 21.1667V3.66667C15.0411 3.35355 15.1284 3.04526 15.2995 2.78077C15.4706 2.51629 15.7178 2.30751 16.01 2.18083C16.3456 2.04697 16.7136 2.01186 17.0692 2.07979C17.4248 2.14772 17.7526 2.31574 18.0123 2.56333C19.9836 4.68413 21.0519 7.46441 20.9981 10.3333V10.3333ZM11.6491 2C11.4237 2 11.2075 2.0878 11.0482 2.24408C10.8888 2.40036 10.7992 2.61232 10.7992 2.83333V7.83333C10.797 8.34855 10.6326 8.85052 10.3283 9.27058C10.024 9.69064 9.59483 10.0083 9.09942 10.18V2.83333C9.09942 2.61232 9.00987 2.40036 8.85049 2.24408C8.6911 2.0878 8.47492 2 8.24951 2C8.02411 2 7.80793 2.0878 7.64854 2.24408C7.48915 2.40036 7.39961 2.61232 7.39961 2.83333V10.18C6.9042 10.0083 6.47499 9.69064 6.17073 9.27058C5.86646 8.85052 5.70198 8.34855 5.69981 7.83333V2.83333C5.69981 2.61232 5.61026 2.40036 5.45087 2.24408C5.29149 2.0878 5.07531 2 4.8499 2C4.62449 2 4.40832 2.0878 4.24893 2.24408C4.08954 2.40036 4 2.61232 4 2.83333V7.83333C4.00124 8.7935 4.34004 9.7239 4.9593 10.4677C5.57856 11.2115 6.44042 11.7233 7.39961 11.9167V21.1667C7.39961 21.3877 7.48915 21.5996 7.64854 21.7559C7.80793 21.9122 8.02411 22 8.24951 22C8.47492 22 8.6911 21.9122 8.85049 21.7559C9.00987 21.5996 9.09942 21.3877 9.09942 21.1667V11.9167C10.0586 11.7233 10.9205 11.2115 11.5397 10.4677C12.159 9.7239 12.4978 8.7935 12.499 7.83333V2.83333C12.499 2.61232 12.4095 2.40036 12.2501 2.24408C12.0907 2.0878 11.8745 2 11.6491 2V2Z" fill="black"/>
</svg>
