<svg width="24" height="24" viewBox="0 0 24 24" fill="none" xmlns="http://www.w3.org/2000/svg">
<path fill-rule="evenodd" clip-rule="evenodd" d="M18.3562 2.4376C18.8879 2.1741 19.5121 2.17412 20.0438 2.43765C20.3294 2.57922 20.57 2.82139 20.7781 3.03086L20.895 3.14777C21.1044 3.35586 21.3465 3.59645 21.488 3.88204C21.7515 4.41366 21.7515 5.03783 21.488 5.56944C21.3464 5.85503 21.1043 6.09561 20.8949 6.30369L11.0728 16.1257H7.8V12.8529L17.6219 3.03077C17.83 2.82131 18.0706 2.57915 18.3562 2.4376ZM19.2707 4.06909C19.2317 4.03003 19.1684 4.03003 19.1293 4.06908L9.60005 13.5983V14.3255H10.3273L19.8564 4.79621C19.8954 4.75716 19.8954 4.69385 19.8564 4.6548L19.2707 4.06909Z" fill="black"/>
<path fill-rule="evenodd" clip-rule="evenodd" d="M7.16325 2.82593C6.49445 2.82592 5.93847 2.82591 5.48472 2.86298C5.01218 2.90159 4.57185 2.98484 4.15644 3.19651C3.51669 3.52248 2.99655 4.04261 2.67058 4.68236C2.45892 5.09777 2.37566 5.53811 2.33705 6.01065C2.29998 6.46439 2.29999 7.02037 2.3 7.68918V16.7627C2.29999 17.4315 2.29998 17.9875 2.33705 18.4412C2.37566 18.9138 2.45892 19.3541 2.67058 19.7695C2.99655 20.4093 3.51669 20.9294 4.15644 21.2554C4.57185 21.467 5.01218 21.5503 5.48472 21.5889C5.93846 21.626 6.49445 21.6259 7.16325 21.6259H16.2368C16.9056 21.6259 17.4616 21.626 17.9154 21.5889C18.3879 21.5503 18.8283 21.467 19.2437 21.2553C19.8834 20.9294 20.4036 20.4092 20.7295 19.7695C20.9412 19.3541 21.0244 18.9137 21.063 18.4412C21.1001 17.9874 21.1001 17.4314 21.1001 16.7626L21.1 11.2259L19.3 11.2259L19.3001 16.7259C19.3001 17.4408 19.2994 17.9229 19.269 18.2946C19.2395 18.6558 19.1865 18.8329 19.1257 18.9523C18.9723 19.2534 18.7275 19.4981 18.4265 19.6515C18.3071 19.7124 18.13 19.7653 17.7688 19.7949C17.3971 19.8252 16.915 19.8259 16.2001 19.8259H7.2C6.48509 19.8259 6.00303 19.8252 5.6313 19.7949C5.27007 19.7653 5.09299 19.7124 4.97362 19.6515C4.67256 19.4981 4.42779 19.2534 4.27439 18.9523C4.21357 18.8329 4.16059 18.6559 4.13108 18.2946C4.1007 17.9229 4.1 17.4408 4.1 16.7259V7.72593C4.1 7.01101 4.1007 6.52895 4.13108 6.15722C4.16059 5.796 4.21357 5.61891 4.27439 5.49954C4.42779 5.19848 4.67256 4.95372 4.97362 4.80032C5.09299 4.7395 5.27007 4.68651 5.6313 4.657C6.00303 4.62663 6.48509 4.62593 7.2 4.62593H12.7V2.82593L7.16325 2.82593Z" fill="black"/>
</svg>
