<svg width="24" height="24" viewBox="0 0 24 24" fill="none" xmlns="http://www.w3.org/2000/svg">
<path fill-rule="evenodd" clip-rule="evenodd" d="M13.5875 2.25739C13.9432 2.605 13.9483 3.17368 13.5989 3.52759L5.18837 12.0469C4.24837 12.999 3.74923 14.2975 3.81072 15.6307L3.81778 15.7837C3.92793 18.1716 5.84634 20.084 8.24631 20.1983C9.57172 20.2614 10.8612 19.759 11.791 18.8171L19.4183 11.0903C19.9628 10.5387 20.243 9.78092 20.1874 9.00973L20.1732 8.8117C20.0772 7.47846 19.0133 6.41675 17.6735 6.31713L17.6251 6.31353C16.8292 6.25435 16.0477 6.54738 15.489 7.11437L8.97316 13.7276C8.82838 13.8745 8.73958 14.0671 8.72203 14.2721L8.71727 14.3278C8.67287 14.8467 9.10984 15.2798 9.63123 15.2338C9.83091 15.2161 10.0177 15.1282 10.1581 14.9858L14.7852 10.2931C15.1344 9.939 15.706 9.93354 16.0619 10.2809C16.4179 10.6283 16.4234 11.197 16.0742 11.5511L11.4471 16.2438C11.0058 16.6913 10.4186 16.9676 9.79098 17.0231C8.15208 17.1679 6.77857 15.8064 6.91813 14.1754L6.9229 14.1197C6.97605 13.4986 7.24507 12.9152 7.6837 12.4701L14.1996 5.85687C15.1306 4.91187 16.4332 4.4235 17.7596 4.52213L17.8081 4.52573C20.0411 4.69176 21.8142 6.46128 21.9742 8.68334L21.9884 8.88137C22.081 10.1667 21.6141 11.4296 20.7066 12.349L13.0793 20.0758C11.789 21.3829 9.99936 22.0803 8.15996 21.9926C4.82927 21.834 2.1669 19.18 2.01403 15.866L2.00698 15.7131C1.92247 13.881 2.60841 12.0966 3.90017 10.7881L12.3107 2.26881C12.6601 1.9149 13.2317 1.90979 13.5875 2.25739Z" fill="black"/>
</svg>
