<svg width="24" height="24" viewBox="0 0 24 24" fill="none" xmlns="http://www.w3.org/2000/svg">
<path d="M5.75647 20.4349L5.75494 20.4341C5.67771 20.3907 5.61339 20.3275 5.56859 20.2511C5.52385 20.1747 5.50016 20.0879 5.49994 19.9994V5.32994H5.50007L5.49981 5.31867C5.48926 4.8505 5.66362 4.39702 5.98512 4.05653C6.30475 3.71801 6.7442 3.51828 7.20919 3.49994H16.7907C17.2557 3.51828 17.6951 3.71801 18.0148 4.05653C18.3363 4.39702 18.5106 4.8505 18.5001 5.31867L18.4999 5.31867V5.32994V19.9982C18.4992 20.085 18.4759 20.1702 18.4322 20.2452C18.3883 20.3207 18.3255 20.3833 18.2499 20.4269L18.4999 20.8599L18.2499 20.4269C18.1739 20.4708 18.0877 20.4939 17.9999 20.4939C17.9122 20.4939 17.8259 20.4708 17.7499 20.4269L17.7463 20.4248L12.0763 17.2148L11.8225 17.0712L11.5726 17.2213L6.24257 20.4213L6.24254 20.4212L6.23624 20.4251C6.16318 20.4705 6.07969 20.4962 5.99385 20.4999C5.91059 20.4983 5.82898 20.476 5.75647 20.4349Z" fill="black" stroke="black"/>
</svg>
