<svg width="24" height="24" viewBox="0 0 24 24" fill="none" xmlns="http://www.w3.org/2000/svg">
<path d="M11.5 4L12.6965 7.96235C13.1805 9.56525 14.4347 10.8195 16.0377 11.3035L20 12.5L16.0377 13.6965C14.4347 14.1805 13.1805 15.4347 12.6965 17.0377L11.5 21L10.3035 17.0377C9.81948 15.4347 8.56525 14.1805 6.96234 13.6965L3 12.5L6.96235 11.3035C8.56525 10.8195 9.81948 9.56525 10.3035 7.96234L11.5 4Z" fill="black"/>
<path d="M18 2.63605L18.6178 4.68183C18.8114 5.32299 19.3131 5.82468 19.9542 6.01829L22 6.63605L19.9542 7.2538C19.3131 7.44741 18.8114 7.94911 18.6178 8.59027L18 10.636L17.3822 8.59027C17.1886 7.94911 16.6869 7.44741 16.0458 7.2538L14 6.63605L16.0458 6.01829C16.6869 5.82468 17.1886 5.32299 17.3822 4.68183L18 2.63605Z" fill="black"/>
</svg>
