<svg width="24" height="24" viewBox="0 0 24 24" fill="none" xmlns="http://www.w3.org/2000/svg">
<path d="M20.9717 5.75768C20.6672 5.63333 20.3318 5.60065 20.0083 5.66379C19.6847 5.72693 19.3877 5.88303 19.155 6.11223L17 9.2248L13.1783 4.47837C12.8658 4.17207 12.4419 4 12 4C11.5581 4 11.1342 4.17207 10.8217 4.47837L7 9.2248L4.845 6.11223C4.61191 5.8838 4.31497 5.72824 3.99172 5.66523C3.66846 5.60222 3.33341 5.63457 3.02891 5.75821C2.72441 5.88184 2.46414 6.0912 2.281 6.35982C2.09786 6.62845 2.00007 6.94427 2 7.26736V15.9154C2.00132 16.9983 2.44073 18.0365 3.22185 18.8022C4.00296 19.5679 5.062 19.9987 6.16667 20H17.8333C18.938 19.9987 19.997 19.5679 20.7782 18.8022C21.5593 18.0365 21.9987 16.9983 22 15.9154V7.26736C22.0001 6.94424 21.9024 6.62835 21.7194 6.35963C21.5364 6.09091 21.2761 5.88144 20.9717 5.75768Z" fill="black"/>
</svg>
