<svg width="24" height="24" viewBox="0 0 24 24" fill="none" xmlns="http://www.w3.org/2000/svg">
<path fill-rule="evenodd" clip-rule="evenodd" d="M2 2.63605H20.1364L21 3.49968V21.636H2.86364L2 20.7724V2.63605ZM3.72727 4.36332V13.1915L6.78926 10.1295L13.0702 16.4106L16.9958 12.485L19.2727 14.7617V4.36332H3.72727ZM19.2727 17.2046L16.9958 14.9277L13.0702 18.8533L6.78926 12.5722L3.72727 15.6342V19.9088H19.2727V17.2046ZM14.6405 7.50381C13.8166 7.50381 13.1487 8.17169 13.1487 8.99555C13.1487 9.81942 13.8166 10.4873 14.6405 10.4873C15.4643 10.4873 16.1322 9.81942 16.1322 8.99555C16.1322 8.17169 15.4643 7.50381 14.6405 7.50381ZM11.4215 8.99555C11.4215 7.21774 12.8627 5.77654 14.6405 5.77654C16.4184 5.77654 17.8595 7.21774 17.8595 8.99555C17.8595 10.7733 16.4184 12.2146 14.6405 12.2146C12.8627 12.2146 11.4215 10.7733 11.4215 8.99555Z" fill="black"/>
</svg>
