<svg width="24" height="24" viewBox="0 0 24 24" fill="none" xmlns="http://www.w3.org/2000/svg">
<path fill-rule="evenodd" clip-rule="evenodd" d="M8.90892 21.2922L3.62892 22.0522C3.18417 22.1132 2.73656 21.9619 2.4201 21.6435C2.10365 21.3251 1.9551 20.8765 2.01892 20.4322L2.77892 15.1522C2.87759 14.4365 3.20771 13.7727 3.71892 13.2622L13.4689 3.52217C14.7243 2.22239 16.5833 1.70111 18.3315 2.15868C20.0796 2.61626 21.4448 3.98149 21.9024 5.72963C22.36 7.47778 21.8387 9.3368 20.5389 10.5922L10.7989 20.3522C10.2884 20.8634 9.62462 21.1935 8.90892 21.2922ZM12.2989 10.7022C12.0065 10.995 12.0065 11.4694 12.2989 11.7622C12.5917 12.0546 13.0661 12.0546 13.3589 11.7622L17.5689 7.55217C17.8443 7.25666 17.8362 6.79616 17.5505 6.51055C17.2649 6.22494 16.8044 6.21681 16.5089 6.49217L12.2989 10.7022Z" fill="black"/>
</svg>
