<svg width="24" height="24" viewBox="0 0 24 24" fill="none" xmlns="http://www.w3.org/2000/svg">
<path d="M21 12C21 16.9236 16.9296 21 11.9992 21C7.07761 21 3 16.9236 3 12C3 7.06925 7.07046 3 11.9921 3C16.9224 3 21 7.06925 21 12ZM10.9326 15.5114C10.9326 16.0803 11.4169 16.5065 12.0024 16.5065C12.5862 16.5065 13.0676 16.0875 13.0676 15.5114C13.0676 14.9401 12.5934 14.5124 12.0024 14.5124C11.4098 14.5124 10.9326 14.9457 10.9326 15.5114ZM11.0603 8.30821L11.1829 12.7039C11.1995 13.2205 11.4897 13.5045 12.0024 13.5045C12.496 13.5045 12.7848 13.2292 12.8013 12.7008L12.9311 8.31532C12.9477 7.78299 12.5481 7.40397 11.9921 7.40397C11.4305 7.40397 11.0437 7.77583 11.0603 8.30821Z" fill="black"/>
</svg>
