<svg width="24" height="24" viewBox="0 0 24 24" fill="none" xmlns="http://www.w3.org/2000/svg">
<path d="M9.34488 3.2501C9.34488 2.75304 9.74782 2.3501 10.2449 2.3501H13.7423C14.2393 2.3501 14.6423 2.75304 14.6423 3.2501C14.6423 3.74715 14.2393 4.1501 13.7423 4.1501H10.2449C9.74782 4.1501 9.34488 3.74715 9.34488 3.2501Z" fill="black"/>
<path d="M7.64706 3.23579C7.66211 3.73262 7.27156 4.14758 6.77473 4.16264C5.91793 4.1886 5.561 4.25649 5.30675 4.38724L5.29766 4.39192C4.91178 4.58486 4.59076 4.90691 4.37297 5.32224C4.24305 5.57633 4.17553 5.93372 4.14965 6.78772C4.13459 7.28455 3.71963 7.6751 3.2228 7.66005C2.72597 7.64499 2.33542 7.23003 2.35047 6.7332C2.37632 5.88016 2.43797 5.149 2.77354 4.49652L2.77627 4.49119C3.15357 3.76941 3.73719 3.16088 4.48818 2.78414C5.13949 2.45067 5.8692 2.38925 6.72021 2.36346C7.21704 2.34841 7.632 2.73896 7.64706 3.23579Z" fill="black"/>
<path d="M16.3401 3.23579C16.3552 2.73896 16.7701 2.34841 17.267 2.36346C18.118 2.38925 18.8477 2.45067 19.499 2.78413C20.25 3.16088 20.8336 3.76942 21.2109 4.4912L21.2136 4.49651C21.5492 5.14899 21.6108 5.88016 21.6367 6.7332C21.6517 7.23003 21.2612 7.64499 20.7644 7.66005C20.2675 7.6751 19.8526 7.28455 19.8375 6.78772C19.8116 5.93372 19.7441 5.57634 19.6142 5.32225C19.3964 4.90691 19.0754 4.58481 18.6895 4.39187L18.6804 4.3873C18.4261 4.25654 18.0692 4.1886 17.2124 4.16264C16.7156 4.14758 16.3251 3.73262 16.3401 3.23579Z" fill="black"/>
<path d="M3.25006 9.34492C3.74712 9.34492 4.15006 9.74786 4.15006 10.2449V13.7423C4.15006 14.2394 3.74712 14.6423 3.25006 14.6423C2.753 14.6423 2.35006 14.2394 2.35006 13.7423V10.2449C2.35006 9.74786 2.753 9.34492 3.25006 9.34492Z" fill="black"/>
<path d="M20.7371 9.34492C21.2342 9.34492 21.6371 9.74786 21.6371 10.2449V13.7423C21.6371 14.2394 21.2342 14.6423 20.7371 14.6423C20.24 14.6423 19.8371 14.2394 19.8371 13.7423V10.2449C19.8371 9.74786 20.24 9.34492 20.7371 9.34492Z" fill="black"/>
<path d="M20.7773 16.3401C21.2741 16.3552 21.6647 16.7702 21.6496 17.267C21.6238 18.12 21.5621 18.8512 21.2266 19.5037L21.2238 19.509C20.8465 20.2308 20.2628 20.8394 19.5118 21.2161C18.8605 21.5495 18.1308 21.6109 17.2799 21.6367C16.7831 21.6518 16.3681 21.2612 16.3531 20.7644C16.338 20.2676 16.7286 19.8526 17.2254 19.8376C18.0822 19.8116 18.4391 19.7437 18.6934 19.6129L18.7025 19.6083C19.0883 19.4153 19.4094 19.0933 19.6272 18.6779C19.7571 18.4239 19.8246 18.0665 19.8505 17.2125C19.8655 16.7156 20.2805 16.3251 20.7773 16.3401Z" fill="black"/>
<path d="M3.2228 16.3531C3.71963 16.338 4.13459 16.7286 4.14965 17.2254C4.17561 18.0822 4.24349 18.4392 4.37425 18.6934L4.37893 18.7025C4.57187 19.0884 4.89392 19.4094 5.30925 19.6272C5.56335 19.7571 5.92073 19.8246 6.77473 19.8505C7.27156 19.8656 7.66211 20.2805 7.64706 20.7774C7.632 21.2742 7.21704 21.6647 6.72021 21.6497C5.86717 21.6238 5.13601 21.5622 4.48352 21.2266L4.47821 21.2239C3.75643 20.8466 3.14789 20.263 2.77114 19.512C2.43768 18.8607 2.37626 18.131 2.35047 17.2799C2.33542 16.7831 2.72597 16.3682 3.2228 16.3531Z" fill="black"/>
<path d="M9.34488 20.7371C9.34488 20.2401 9.74782 19.8371 10.2449 19.8371H13.7423C14.2393 19.8371 14.6423 20.2401 14.6423 20.7371C14.6423 21.2342 14.2393 21.6371 13.7423 21.6371H10.2449C9.74782 21.6371 9.34488 21.2342 9.34488 20.7371Z" fill="black"/>
</svg>
