<svg width="24" height="24" viewBox="0 0 24 24" fill="none" xmlns="http://www.w3.org/2000/svg">
<path fill-rule="evenodd" clip-rule="evenodd" d="M21.0001 6H3.00006V9C4.10463 9 5.00006 9.89543 5.00006 11V15C5.00006 17.8284 5.00006 19.2426 5.87874 20.1213C6.75742 21 8.17163 21 11.0001 21H13.0001C15.8285 21 17.2427 21 18.1214 20.1213C19.0001 19.2426 19.0001 17.8284 19.0001 15V11C19.0001 9.89543 19.8955 9 21.0001 9V6ZM10.5001 11C10.5001 10.4477 10.0523 10 9.50006 10C8.94778 10 8.50006 10.4477 8.50006 11V16C8.50006 16.5523 8.94778 17 9.50006 17C10.0523 17 10.5001 16.5523 10.5001 16V11ZM15.5001 11C15.5001 10.4477 15.0523 10 14.5001 10C13.9478 10 13.5001 10.4477 13.5001 11V16C13.5001 16.5523 13.9478 17 14.5001 17C15.0523 17 15.5001 16.5523 15.5001 16V11Z" fill="black"/>
<path fill-rule="evenodd" clip-rule="evenodd" d="M13.4059 2.12123C12.982 2.0399 12.4892 2 12 2C11.5108 2 11.018 2.0399 10.5941 2.12123C10.3821 2.16189 10.1746 2.21529 9.98664 2.28562C9.81588 2.34951 9.58299 2.45558 9.38596 2.63942C8.98214 3.01618 8.96021 3.64897 9.33698 4.05278C9.69251 4.43384 10.276 4.47484 10.68 4.16168C10.6823 4.16078 10.6848 4.15982 10.6875 4.15881C10.7409 4.13884 10.8335 4.11176 10.9709 4.08542C11.2455 4.03274 11.6087 4 12 4C12.3913 4 12.7545 4.03274 13.0291 4.08542C13.1665 4.11176 13.2592 4.13884 13.3125 4.1588C13.3152 4.15982 13.3177 4.16078 13.32 4.16168C13.724 4.47484 14.3075 4.43384 14.663 4.05278C15.0398 3.64897 15.0179 3.01618 14.614 2.63942C14.417 2.45558 14.1841 2.34951 14.0134 2.28562C13.8254 2.21529 13.6179 2.16189 13.4059 2.12123Z" fill="black"/>
</svg>
