<svg width="24" height="25" viewBox="0 0 24 25" fill="none" xmlns="http://www.w3.org/2000/svg">
<path fill-rule="evenodd" clip-rule="evenodd" d="M2 3H20.1364L21 3.86364V22H2.86364L2 21.1364V3ZM3.72727 4.72727V13.5555L6.78926 10.4935L13.0702 16.7745L16.9958 12.8489L19.2727 15.1257V4.72727H3.72727ZM19.2727 17.5685L16.9958 15.2916L13.0702 19.2173L6.78926 12.9362L3.72727 15.9982V20.2727H19.2727V17.5685ZM14.6405 7.86777C13.8166 7.86777 13.1487 8.53564 13.1487 9.35951C13.1487 10.1834 13.8166 10.8513 14.6405 10.8513C15.4643 10.8513 16.1322 10.1834 16.1322 9.35951C16.1322 8.53564 15.4643 7.86777 14.6405 7.86777ZM11.4215 9.35951C11.4215 7.58169 12.8627 6.14049 14.6405 6.14049C16.4184 6.14049 17.8595 7.58169 17.8595 9.35951C17.8595 11.1373 16.4184 12.5785 14.6405 12.5785C12.8627 12.5785 11.4215 11.1373 11.4215 9.35951Z" fill="#141415"/>
</svg>
